<?xml version="1.0" encoding="UTF-8" standalone="no"?>
<!-- Created with Inkscape (http://www.inkscape.org/) -->

<svg
   width="64mm"
   height="64mm"
   viewBox="0 0 64 64"
   version="1.1"
   id="svg5"
   inkscape:version="1.2.2 (b0a8486541, 2022-12-01)"
   sodipodi:docname="conveyor.svg"
   xmlns:inkscape="http://www.inkscape.org/namespaces/inkscape"
   xmlns:sodipodi="http://sodipodi.sourceforge.net/DTD/sodipodi-0.dtd"
   xmlns="http://www.w3.org/2000/svg"
   xmlns:svg="http://www.w3.org/2000/svg">
  <sodipodi:namedview
     id="namedview7"
     pagecolor="#505050"
     bordercolor="#eeeeee"
     borderopacity="1"
     inkscape:showpageshadow="0"
     inkscape:pageopacity="0"
     inkscape:pagecheckerboard="0"
     inkscape:deskcolor="#505050"
     inkscape:document-units="mm"
     showgrid="false"
     inkscape:zoom="1.1893044"
     inkscape:cx="220.29684"
     inkscape:cy="186.66373"
     inkscape:window-width="1676"
     inkscape:window-height="973"
     inkscape:window-x="0"
     inkscape:window-y="53"
     inkscape:window-maximized="1"
     inkscape:current-layer="layer1" />
  <defs
     id="defs2" />
  <g
     inkscape:label="Calque 1"
     inkscape:groupmode="layer"
     id="layer1">
    <rect
       style="fill:#916f6f;stroke-width:7.42028;stroke-linecap:round;stroke-linejoin:round"
       id="rect358"
       width="64"
       height="64"
       x="0"
       y="-2.0020353e-07" />
    <path
       id="rect1108"
       style="fill:#483737;stroke-width:5.71547;stroke-linecap:round;stroke-linejoin:round"
       d="M -8.0000285 0 L -8.0000265 35.777214 L -40.000138 71.554429 L -35.999866 71.554429 L -4.0002707 35.777214 L -3.9997559 0 L -8.0000285 0 z "
       transform="matrix(1,0,0.44721355,0.89442721,0,0)" />
    <path
       id="rect1108-0"
       style="fill:#483737;stroke-width:5.40536;stroke-linecap:round;stroke-linejoin:round"
       d="M -16,-3.0040706e-7 5.63e-5,32.000114 -15.999999,64.000228 h 4.000272 L 3.999812,32.000114 -11.999727,-3.0040706e-7 Z" />
    <path
       id="rect1108-9"
       style="fill:#483737;stroke-width:5.40536;stroke-linecap:round;stroke-linejoin:round"
       d="M 7.999972,9.9796472e-8 24.000028,32.000114 7.999972,64.000228 h 4.000272 L 27.999784,32.000114 12.000244,9.9796472e-8 Z" />
    <path
       id="rect1108-0-3"
       style="fill:#483737;stroke-width:5.40536;stroke-linecap:round;stroke-linejoin:round"
       d="M 0,-2.0020353e-7 16.000056,32.000114 1e-6,64.000228 H 4.000273 L 19.999812,32.000114 4.000273,-2.0020353e-7 Z" />
    <path
       id="rect1108-6"
       style="fill:#483737;stroke-width:5.40536;stroke-linecap:round;stroke-linejoin:round"
       d="M 23.999971,9.9898235e-8 40.000028,32.000113 23.999972,64.000228 h 4.000272 L 43.999784,32.000113 28.000244,9.9898235e-8 Z" />
    <path
       id="rect1108-0-0"
       style="fill:#483737;stroke-width:5.40536;stroke-linecap:round;stroke-linejoin:round"
       d="M 16,-2.0010176e-7 32.000056,32.000114 16.000001,64.000228 h 4.000272 L 35.999812,32.000114 20.000273,-2.0010176e-7 Z" />
    <path
       id="rect1108-9-6"
       style="fill:#483737;stroke-width:5.40536;stroke-linecap:round;stroke-linejoin:round"
       d="M 39.999972,1.9989823e-7 56.000028,32.000114 39.999972,64.000228 h 4.000272 L 59.999784,32.000114 44.000244,1.9989823e-7 Z" />
    <path
       id="rect1108-0-3-2"
       style="fill:#483737;stroke-width:5.40536;stroke-linecap:round;stroke-linejoin:round"
       d="M 32,-1.0010177e-7 48.000056,32.000114 32.000001,64.000228 h 4.000272 L 51.999812,32.000114 36.000273,-1.0010177e-7 Z" />
    <path
       id="rect1108-6-1"
       style="fill:#483737;stroke-width:5.40536;stroke-linecap:round;stroke-linejoin:round"
       d="M 48,-1.0010177e-7 64.000057,32.000113 48.000001,64.000228 h 4.000272 L 67.999813,32.000113 52.000273,-1.0010177e-7 Z" />
    <path
       id="rect1108-0-3-2-7"
       style="fill:#483737;stroke-width:5.40536;stroke-linecap:round;stroke-linejoin:round"
       d="M 56.000029,-1.0010177e-7 72.000085,32.000114 56.00003,64.000228 h 4.000272 L 75.999841,32.000114 60.000302,-1.0010177e-7 Z" />
  </g>
</svg>
